<?xml version="1.0" standalone="no"?>
<!DOCTYPE svg PUBLIC "-//W3C//DTD SVG 20010904//EN"
 "http://www.w3.org/TR/2001/REC-SVG-20010904/DTD/svg10.dtd">
<svg version="1.0" xmlns="http://www.w3.org/2000/svg"
 width="700.000000pt" height="700.000000pt" viewBox="0 0 700.000000 700.000000"
 preserveAspectRatio="xMidYMid meet">
<metadata>
Created by potrace 1.14, written by Peter Selinger 2001-2017
</metadata>
<g transform="translate(0.000000,700.000000) scale(0.100000,-0.100000)"
fill="#000000" stroke="none">
<path d="M0 3500 l0 -3501 1898 4 c1043 1 1908 6 1922 9 14 4 50 9 80 12 99 9
312 47 435 78 653 163 1242 505 1699 987 76 81 76 80 152 171 89 108 146 183
217 290 31 47 61 90 67 97 5 7 10 14 10 17 0 2 18 34 40 71 212 348 396 878
445 1280 4 28 8 61 11 75 26 152 26 614 -1 835 -18 149 -63 371 -105 520 -25
89 -33 115 -52 170 -175 512 -454 962 -833 1340 -189 190 -214 212 -368 329
-432 327 -927 551 -1437 650 -41 8 -97 18 -125 22 -27 4 -57 9 -65 10 -8 2
-42 6 -76 9 -33 4 -74 9 -90 12 -16 3 -883 8 -1926 10 l-1898 4 0 -3501z
m3655 2716 c66 -3 129 -8 141 -10 11 -2 47 -7 80 -10 185 -20 502 -108 694
-193 243 -107 475 -249 665 -406 112 -93 350 -342 430 -450 238 -320 386 -631
480 -1007 24 -95 28 -112 42 -199 4 -25 8 -48 8 -51 1 -5 14 -126 20 -195 11
-112 5 -373 -11 -505 -23 -194 -48 -312 -105 -495 -54 -170 -87 -253 -163
-405 -224 -450 -571 -833 -994 -1097 -328 -204 -725 -349 -1070 -389 -26 -3
-58 -7 -72 -9 -79 -13 -268 -17 -805 -17 -330 0 -614 1 -631 1 l-30 1 1 383
c1 210 3 384 4 387 0 3 286 5 634 6 639 1 700 3 862 30 441 74 876 327 1160
674 20 25 44 54 54 65 43 52 141 212 194 319 224 451 262 1010 100 1476 -17
49 -17 51 -64 160 -201 470 -619 865 -1104 1043 -104 38 -268 82 -345 92 -25
3 -52 8 -60 10 -60 15 -330 19 -1572 19 -773 1 -1410 4 -1413 8 -5 5 -10 613
-6 745 1 16 8 22 29 25 50 6 2725 0 2847 -6z m-2104 -1555 c1 -3 2 -878 3
-1943 l1 -1938 -25 -1 c-165 -3 -742 0 -747 4 -4 5 -8 3542 -4 3838 l1 45 385
0 c212 0 386 -2 386 -5z m2119 -5 c515 -81 923 -497 986 -1005 79 -635 -351
-1203 -991 -1307 -22 -3 -330 -7 -686 -9 l-645 -2 0 1161 c0 655 3 1164 8
1167 13 8 1273 3 1328 -5z"/>
</g>
</svg>
